<svg width="155" height="32" viewBox="0 0 155 32" fill="none" xmlns="http://www.w3.org/2000/svg">
<g clip-path="url(#clip0)">
<path d="M13.1783 15.4453H0V18.2748H5.34884V31.7244H8.37209V18.2748H13.1783V15.4453Z" fill="#1A1C20"/>
<path d="M17.7133 31.7267C20.7365 31.7267 22.4419 30.3508 23.2559 28.4903L20.6008 27.5601C20.2326 28.5484 19.4962 29.3624 17.7714 29.3624C16.1241 29.3624 15.0388 28.4322 14.845 26.7655H23.2559V25.7384C23.2559 22.0756 21.1629 19.75 17.6357 19.75C14.2249 19.75 11.8218 22.25 11.8218 25.8353C11.8218 29.4012 14.0892 31.7267 17.7133 31.7267ZM17.6357 22.0368C19.2055 22.0368 20.1164 22.8895 20.252 24.595H14.845C15.0582 22.9864 16.1435 22.0368 17.6357 22.0368Z" fill="#1A1C20"/>
<path d="M28.8569 31.7249C30.5817 31.7249 32.791 29.8451 32.791 29.8451V31.4536H35.6592V24.0893C35.6592 20.911 33.7794 19.5156 30.698 19.5156C27.5003 19.5156 25.4848 21.2792 25.3879 23.9342H28.1398V23.7598C28.2173 22.7133 28.9344 21.9187 30.4654 21.9187C31.9964 21.9187 32.5972 22.5583 32.5972 23.2559V23.3722C32.5972 23.3722 31.5119 24.1086 29.3608 24.535C26.7445 25.097 24.7871 25.6978 24.7871 28.3335C24.8065 30.349 26.3569 31.7249 28.8569 31.7249V31.7249ZM29.6902 29.5156C28.6243 29.5156 28.0042 28.973 28.0042 28.1784C28.0042 27.1319 28.8956 26.7443 30.0778 26.4536C31.0468 26.2017 32.1321 26.0079 32.791 25.6009V26.5893C32.7329 28.7598 31.1437 29.5156 29.6902 29.5156V29.5156Z" fill="#1A1C20"/>
<path d="M41.2015 19.9435H38.1782V31.7071H41.3759V25.0598C41.3759 23.2768 42.3061 22.4241 43.4108 22.4241C44.6511 22.4241 45.2712 23.1605 45.2712 24.5947V31.7071H48.2945V25.0598C48.2945 23.3543 49.0309 22.4241 50.3294 22.4241C51.5503 22.4241 52.1898 23.1605 52.1898 24.7303V31.7264H55.2325V24.4978C55.2325 21.4745 53.8371 19.7109 51.5697 19.7109C49.5542 19.7109 48.2945 20.7381 47.7712 22.1722C47.1899 20.3311 45.872 19.7109 44.5736 19.7109C42.9263 19.7109 41.7829 20.4861 41.2015 21.8621V19.9435Z" fill="#1A1C20"/>
<path d="M60.8527 15.2539L57.752 17.2307V31.7268H60.8527V15.2539Z" fill="#1A1C20"/>
<path d="M68.682 31.7267C71.7053 31.7267 73.4107 30.3508 74.2246 28.4903L71.5696 27.5601C71.2014 28.5484 70.465 29.3624 68.7401 29.3624C67.0929 29.3624 66.0076 28.4322 65.8138 26.7655H74.2246V25.7384C74.2246 22.0756 72.1316 19.75 68.6045 19.75C65.213 19.75 62.7905 22.25 62.7905 25.8353C62.7905 29.4012 65.058 31.7267 68.682 31.7267V31.7267ZM68.6045 22.0368C70.1743 22.0368 71.0851 22.8895 71.2208 24.595H65.8138C66.0463 22.9864 67.1316 22.0368 68.6045 22.0368Z" fill="#1A1C20"/>
<path d="M79.8064 31.7263C81.5312 31.7263 83.5661 29.8658 83.5661 29.8658V31.455H86.4343V24.1875C86.4343 21.0674 84.5545 19.6914 81.4924 19.6914C78.2948 19.6914 76.2793 21.4162 76.1824 24.0325H79.1087V23.8581C79.1862 22.8309 79.9033 22.0557 81.4343 22.0557C82.9653 22.0557 83.5661 22.6953 83.5661 23.3736V23.4705C83.5661 23.4705 82.4614 24.2069 80.3103 24.6139C77.7134 25.1953 75.7754 25.7767 75.7754 28.3736C75.7754 30.3697 77.3258 31.7263 79.8064 31.7263V31.7263ZM80.4653 29.5557C79.3994 29.5557 78.7986 29.0131 78.7986 28.2379C78.7986 27.2108 79.6901 26.8232 80.8723 26.5325C81.8413 26.2806 82.9072 26.0868 83.5855 25.6992V26.6682C83.508 28.8387 81.9382 29.5557 80.4653 29.5557V29.5557Z" fill="#1A1C20"/>
<path d="M93.6822 31.7253C95.1744 31.7253 96.1822 31.0663 96.9768 30.0005V31.4927H100V15.0586L96.9768 17.0353V21.2601C96.1822 20.1943 95.1551 19.7291 93.7016 19.7291C90.7752 19.7291 88.5659 22.1129 88.5659 25.7756C88.5659 29.516 90.7946 31.7253 93.6822 31.7253V31.7253ZM94.3217 29.264C92.5969 29.264 91.4729 28.14 91.4729 25.8532V25.6788C91.4729 23.3919 92.6357 22.1322 94.3217 22.1322C96.124 22.1322 97.1705 23.4694 97.1705 25.5431V25.7369C97.1512 27.8299 96.0659 29.264 94.3217 29.264Z" fill="#1A1C20"/>
<path d="M108.023 31.7267C111.047 31.7267 112.752 30.3508 113.566 28.4903L110.911 27.5601C110.543 28.5484 109.806 29.3624 108.081 29.3624C106.434 29.3624 105.349 28.4322 105.155 26.7655H113.566V25.7384C113.566 22.0756 111.473 19.75 107.946 19.75C104.554 19.75 102.132 22.25 102.132 25.8353C102.132 29.4012 104.399 31.7267 108.023 31.7267V31.7267ZM107.907 22.0368C109.477 22.0368 110.388 22.8895 110.523 24.595H105.136C105.349 22.9864 106.434 22.0368 107.907 22.0368Z" fill="#1A1C20"/>
<path d="M118.799 19.9047H115.698V31.7264H118.799V25.835C118.799 23.7032 119.302 22.8117 121.105 22.8117H122.287V19.7109H122.054C119.961 19.7109 119.128 20.6993 118.799 22.114V19.9047Z" fill="#1A1C20"/>
<path d="M134.826 27.1323L126.764 14.0703H134.826V27.1323Z" fill="#00B2B2"/>
<path d="M134.826 13.062H115.659L134.826 0V13.062Z" fill="#00B2B2"/>
<path d="M147.636 19.0891L135.833 27.1318V0L147.636 19.0891Z" fill="#00B2B2"/>
<path d="M145.717 14.0703L148.469 18.5277L155 14.0703H145.717Z" fill="#00B2B2"/>
</g>
<defs>
<clipPath id="clip0">
<rect width="155" height="32" fill="white"/>
</clipPath>
</defs>
</svg>
